# xmcd
#
# Track frame offsets: 
#        150
#        23354
#        43348
#        61833
#        82650
#        97114
#        114852
#        133614
#        146275
#        165969
#        189237
#        211520
#
# Disc length: 3075 seconds
#
# Revision: 0
# Processed by: cddbd v1.5.2PL0 Copyright (c) Steve Scherf et al.
# Submitted via: ExactAudioCopyFreeDBPlugin 1.0
#
DISCID=850c010c
DTITLE=Eric Noden Band - Solid Ground
DYEAR=2014
DGENRE=Blues
TTITLE0=Solid Ground
TTITLE1=Secnd Day Of June
TTITLE2=Can't Stand To Lose You
TTITLE3=Rhyme Or Reason
TTITLE4=Incident
TTITLE5=Sikth Sense
TTITLE6=Alaska
TTITLE7=Fix It Tomorrow
TTITLE8=I Like A Woman
TTITLE9=Lost Turnpike
TTITLE10=Deep Wells And Deep Pockets
TTITLE11=Sonic Breakdown
EXTD=
EXTT0=
EXTT1=
EXTT2=
EXTT3=
EXTT4=
EXTT5=
EXTT6=
EXTT7=
EXTT8=
EXTT9=
EXTT10=
EXTT11=
PLAYORDER=
